# xmcd
#
# Track frame offsets: 
#        150
#        15510
#        31138
#        45753
#        62378
#        76780
#        91115
#        107363
#        121126
#        137480
#        159197
#        174209
#
# Disc length: 2587 seconds
#
# Revision: 0
# Processed by: cddbd v1.5.2PL0 Copyright (c) Steve Scherf et al.
# Submitted via: ExactAudioCopy v1.3
#
DISCID=6a0a190c
DTITLE=Blake Shelton - Fully Loaded, God's Country
DYEAR=2019
DGENRE=Country
TTITLE0=God's Country
TTITLE1=Hell Right (Feat. Trace Adkins)
TTITLE2=Nobody But You (Duet With Gwen Stefani)
TTITLE3=Came Here To Forget
TTITLE4=She's Got A Way With Words
TTITLE5=A Guy With A Girl
TTITLE6=Every Time I Hear That Song
TTITLE7=I'll Name The Dogs
TTITLE8=I Lived It
TTITLE9=Turnin' Me On
TTITLE10=Jesus Got A Tight Grip
TTITLE11=Tequila Sheila
EXTD=
EXTT0=
EXTT1=
EXTT2=
EXTT3=
EXTT4=
EXTT5=
EXTT6=
EXTT7=
EXTT8=
EXTT9=
EXTT10=
EXTT11=
PLAYORDER=
